<svg xmlns="http://www.w3.org/2000/svg" xmlns:xlink="http://www.w3.org/1999/xlink"><defs><symbol viewBox="0 0 512 512" id="blog"><path d="M200.3 0c-4.5-.1-8.2 3.6-8.2 8.1V24c0 4.4 3.5 7.8 7.9 7.9C352.8 35.7 476 159.2 480 312c.1 4.4 3.6 7.9 7.9 7.9h16c4.5 0 8.2-3.7 8.1-8.2C507.7 141.8 370.2 4.3 200.3 0zm0 96c-4.5-.2-8.2 3.6-8.2 8.1v16c0 4.3 3.5 7.8 7.8 8 99.8 4 180.5 84.2 184.2 184 .2 4.3 3.6 7.8 8 7.8h15.8c4.5 0 8.2-3.7 8.1-8.2-4.3-117-98.7-211.4-215.7-215.7zM121 256h-9c-8.8 0-16 7.2-16 16v16c0 8.8 7.2 16 16 16h10.9c47 0 88 38.4 84.9 85.3-2.6 39.9-34.6 71.8-74.4 74.5C86.4 467 48 426 48 378.9V144c0-8.8-7.2-16-16-16H16c-8.8 0-16 7.2-16 16v233c0 74.2 60.1 138.5 134.3 134.9 65.6-3.2 118.4-56 121.6-121.6C259.4 316.1 195.2 256 121 256z" /></symbol><symbol viewBox="0 0 576 512" id="edit"><path d="M417.8 315.5l20-20c3.8-3.8 10.2-1.1 10.2 4.2V464c0 26.5-21.5 48-48 48H48c-26.5 0-48-21.5-48-48V112c0-26.5 21.5-48 48-48h292.3c5.3 0 8 6.5 4.2 10.2l-20 20c-1.1 1.1-2.7 1.8-4.2 1.8H48c-8.8 0-16 7.2-16 16v352c0 8.8 7.2 16 16 16h352c8.8 0 16-7.2 16-16V319.7c0-1.6.6-3.1 1.8-4.2zm145.9-191.2L251.2 436.8l-99.9 11.1c-13.4 1.5-24.7-9.8-23.2-23.2l11.1-99.9L451.7 12.3c16.4-16.4 43-16.4 59.4 0l52.6 52.6c16.4 16.4 16.4 43 0 59.4zm-93.6 48.4L403.4 106 169.8 339.5l-8.3 75.1 75.1-8.3 233.5-233.6zm71-85.2l-52.6-52.6c-3.8-3.8-10.2-4-14.1 0L426 83.3l66.7 66.7 48.4-48.4c3.9-3.8 3.9-10.2 0-14.1z" /></symbol><symbol viewBox="0 0 448 512" id="trash-alt"><path d="M296 432h16a8 8 0 0 0 8-8V152a8 8 0 0 0-8-8h-16a8 8 0 0 0-8 8v272a8 8 0 0 0 8 8zm-160 0h16a8 8 0 0 0 8-8V152a8 8 0 0 0-8-8h-16a8 8 0 0 0-8 8v272a8 8 0 0 0 8 8zM440 64H336l-33.6-44.8A48 48 0 0 0 264 0h-80a48 48 0 0 0-38.4 19.2L112 64H8a8 8 0 0 0-8 8v16a8 8 0 0 0 8 8h24v368a48 48 0 0 0 48 48h288a48 48 0 0 0 48-48V96h24a8 8 0 0 0 8-8V72a8 8 0 0 0-8-8zM171.2 38.4A16.1 16.1 0 0 1 184 32h80a16.1 16.1 0 0 1 12.8 6.4L296 64H152zM384 464a16 16 0 0 1-16 16H80a16 16 0 0 1-16-16V96h320zm-168-32h16a8 8 0 0 0 8-8V152a8 8 0 0 0-8-8h-16a8 8 0 0 0-8 8v272a8 8 0 0 0 8 8z" /></symbol></defs></svg>